<?xml version="1.0" encoding="utf-8"?>
<!-- Generator: Adobe Illustrator 16.0.0, SVG Export Plug-In . SVG Version: 6.00 Build 0)  -->
<!DOCTYPE svg PUBLIC "-//W3C//DTD SVG 1.1//EN" "http://www.w3.org/Graphics/SVG/1.1/DTD/svg11.dtd">
<svg version="1.1" id="Layer_1" xmlns="http://www.w3.org/2000/svg" xmlns:xlink="http://www.w3.org/1999/xlink" x="0px" y="0px"
	 width="640px" height="640px" viewBox="0 0 640 640" enable-background="new 0 0 640 640" xml:space="preserve">
<line fill="none" stroke="#979A9A" stroke-width="16" stroke-miterlimit="10" x1="320" y1="160" x2="320" y2="480"/>
<line fill="none" stroke="#979A9A" stroke-width="16" stroke-miterlimit="10" x1="160" y1="320" x2="480" y2="320"/>
<line fill="none" stroke="#979A9A" stroke-width="16" stroke-miterlimit="10" x1="432" y1="208" x2="208" y2="432"/>
<line fill="none" stroke="#979A9A" stroke-width="16" stroke-miterlimit="10" x1="208" y1="208" x2="432" y2="432"/>
<path fill="#EB984E" d="M320,128c-106.039,0-192,85.961-192,192c0,106.039,85.961,192,192,192s192-85.961,192-192
	C512,213.961,426.039,128,320,128z M320,472c-83.947,0-152-68.053-152-152s68.053-152,152-152s152,68.053,152,152
	S403.947,472,320,472z"/>
<path fill="#E67E22" d="M320,144c-97.202,0-176,78.798-176,176s78.798,176,176,176s176-78.798,176-176S417.202,144,320,144z
	 M320,472c-83.947,0-152-68.053-152-152s68.053-152,152-152s152,68.053,152,152S403.947,472,320,472z"/>
<path fill="#979A9A" d="M320,160c-88.366,0-160,71.634-160,160c0,88.365,71.634,160,160,160c88.365,0,160-71.635,160-160
	C480,231.634,408.365,160,320,160z M320,464c-79.529,0-144-64.471-144-144c0-79.529,64.471-144,144-144c79.529,0,144,64.471,144,144
	C464,399.529,399.529,464,320,464z"/>
<g>
</g>
<g>
</g>
<g>
</g>
<g>
</g>
<g>
</g>
<g>
</g>
</svg>
