<?xml version="1.0" encoding="utf-8"?>
<!-- Generator: Adobe Illustrator 16.0.0, SVG Export Plug-In . SVG Version: 6.00 Build 0)  -->
<!DOCTYPE svg PUBLIC "-//W3C//DTD SVG 1.1//EN" "http://www.w3.org/Graphics/SVG/1.1/DTD/svg11.dtd">
<svg version="1.1" id="Layer_1" xmlns="http://www.w3.org/2000/svg" xmlns:xlink="http://www.w3.org/1999/xlink" x="0px" y="0px"
	 width="640px" height="640px" viewBox="0 0 640 640" enable-background="new 0 0 640 640" xml:space="preserve">
<g>
	<path fill="#17202A" d="M224,496c0,8.837,7.164,16,16,16h160c8.837,0,16-7.163,16-16v-16c0-8.837-7.163-16-16-16H240
		c-8.836,0-16,7.163-16,16V496z"/>
</g>
<g>
	<path fill="#212F3D" d="M224,480c0,8.837,7.164,16,16,16h160c8.837,0,16-7.163,16-16V160c0-8.836-7.163-16-16-16H240
		c-8.836,0-16,7.164-16,16V480z"/>
</g>
<rect x="240" y="160" fill="#273746" width="160" height="288"/>
<polygon fill="#2ECC71" points="304,248 304,240 336,240 336,248 360,248 360,360 280,360 280,248 "/>
<polygon fill="#273746" points="312,296 320,304 336,288 344,296 320,320 304,304 "/>
<g>
</g>
<g>
</g>
<g>
</g>
<g>
</g>
<g>
</g>
<g>
</g>
</svg>
