<?xml version="1.0" encoding="utf-8"?>
<!-- Generator: Adobe Illustrator 16.0.0, SVG Export Plug-In . SVG Version: 6.00 Build 0)  -->
<!DOCTYPE svg PUBLIC "-//W3C//DTD SVG 1.1//EN" "http://www.w3.org/Graphics/SVG/1.1/DTD/svg11.dtd">
<svg version="1.1" id="Layer_1" xmlns="http://www.w3.org/2000/svg" xmlns:xlink="http://www.w3.org/1999/xlink" x="0px" y="0px"
	 width="496px" height="384px" viewBox="0 0 496 384" enable-background="new 0 0 496 384" xml:space="preserve">
<path fill="#17A589" d="M440,152c0,0,16-32,40-8c16,16,16,48,0,64s-40,0-40,0V152z"/>
<path fill="#17A589" d="M80,144c0,0-40-48-64-8s-16,80,0,104s64-16,64-16V144z"/>
<path fill="#17A589" d="M88,112c0,0-24,8-24-16s16-24,24-24s16,16,16,16L88,112z"/>
<circle fill="#1ABC9C" cx="256" cy="192" r="192"/>
<path fill="#17A589" d="M168,144c0,0-16-23.111-39.999,0.889c-16.002,16-16.002,48,0,64c15.999,16,39.999,0,39.999,0V144z"/>
<circle cx="248" cy="168" r="24"/>
<circle cx="360" cy="168" r="24"/>
<path fill="none" stroke="#000000" stroke-width="12" stroke-linejoin="round" stroke-miterlimit="10" d="M272,200c0,0,8,24,32,24
	s32-24,32-24"/>
<path fill="#1ABC9C" d="M168,143.111c0,0-8,16-8,32S168,208,168,208l8-32.889L168,143.111z"/>
<circle fill="#FFFFFF" cx="240" cy="160" r="8"/>
<circle fill="#FFFFFF" cx="352" cy="160" r="8"/>
<g>
</g>
<g>
</g>
<g>
</g>
<g>
</g>
<g>
</g>
<g>
</g>
</svg>
